# xmcd
# 
# Track frame offsets:
#     150
#     12572
#     47152
#     60538
#     69656
#     83217
#     97562
#     113587
#     127533
#     150294
#     160569
#     186174
#     197701
#     223994
#     234852
#     262496
#     274858
#     285669
#     298430
# 
# Disc length: 4141
# 
# Revision: 3
# Processed by: cddbd v1.5.2PL0 Copyright (c) Steve Scherf et al.
# Submitted via: fre:ac v1.0.31
# 
DISCID=0e102b13
DTITLE=Howlin' Wolf - Smokestack Lightning - The Complete Chess Masters 1951-1960 - Disc 4
DYEAR=1958
DGENRE=Blues
TTITLE0=I'm Leaving You (alt)
TTITLE1=I'm Leaving You (alt - takes 7-10)
TTITLE2=I'm Leaving You
TTITLE3=Can't Put Me Out (alt 1)
TTITLE4=Can't Put Me Out (alt 2)
TTITLE5=(You) Can't Put Me Out
TTITLE6=Change My Way
TTITLE7=Getting Late
TTITLE8=I've Been Abused (alt  -takes 4-12)
TTITLE9=I've Been Abused
TTITLE10=Howlin' For My Baby (alt - takes 1-7)
TTITLE11=Howlin' For My Darling (or Baby)
TTITLE12=Wolf In The Mood (inst)
TTITLE13=My People's Gone
TTITLE14=Mr Airplane Man (alt - takes 1-2)
TTITLE15=Mr Airplane Man
TTITLE16=Wang-Dang-Doodle
TTITLE17=Back Door Man
TTITLE18=Spoonful
EXTD=
EXTT0=
EXTT1=
EXTT2=
EXTT3=
EXTT4=
EXTT5=
EXTT6=
EXTT7=
EXTT8=
EXTT9=
EXTT10=
EXTT11=
EXTT12=
EXTT13=
EXTT14=
EXTT15=
EXTT16=
EXTT17=
EXTT18=
PLAYORDER=
